# xmcd
#
# Track frame offsets:
#	150
#	9399
#	19099
#	33085
#	45176
#	58475
#	69692
#	79859
#	93724
#	106603
#	119087
#	131321
#	145271
#	158599
#	170720
#	180290
#	193648
#	206556
#	219112
#	229200
#	242070
#	252633
#	264394
#	276465
#
# Disc length: 3824 seconds
#
# Revision: 4
# Processed by: cddbd v1.5.2PL0 Copyright (c) Steve Scherf et al.
# Submitted via: EZCDAudioConverter 1.3.4.1
#
DISCID=520eee18
DTITLE=Martin Denny - Forbidden Island/Primitiva
DYEAR=1900
DGENRE=
TTITLE0=Cobra
TTITLE1=Port Au Prince
TTITLE2=Exotica
TTITLE3=Little China Doll
TTITLE4=Bali Hai
TTITLE5=Narcissus Queen
TTITLE6=Goony Birds
TTITLE7=Sim Sim
TTITLE8=Primitiva
TTITLE9=March Of The Siamese Children
TTITLE10=Sakara
TTITLE11=Forbidden Island
TTITLE12=Burma Train
TTITLE13=Kalua
TTITLE14=M'Gambo Mambo
TTITLE15=Buddhist Bells
TTITLE16=M'Bira
TTITLE17=Flamingo
TTITLE18=Llama Serenade
TTITLE19=Akaka Falls
TTITLE20=Bangkok Cockfight
TTITLE21=Mau Mau
TTITLE22=Dites Moi
TTITLE23=Jamaica Farewell
EXTD=
EXTT0=
EXTT1=
EXTT2=
EXTT3=
EXTT4=
EXTT5=
EXTT6=
EXTT7=
EXTT8=
EXTT9=
EXTT10=
EXTT11=
EXTT12=
EXTT13=
EXTT14=
EXTT15=
EXTT16=
EXTT17=
EXTT18=
EXTT19=
EXTT20=
EXTT21=
EXTT22=
EXTT23=
PLAYORDER=
